<svg width="1059" height="1360" viewBox="0 0 1059 1360" fill="none" xmlns="http://www.w3.org/2000/svg">
<path d="M424.291 509.948C424.26 489.542 428.246 469.33 436.022 450.471C443.798 431.612 455.211 414.477 469.606 400.047C484.001 385.618 501.095 374.178 519.908 366.384C538.722 358.589 558.886 354.593 579.243 354.624C599.624 354.582 619.812 358.568 638.655 366.354C657.497 374.14 674.623 385.572 689.054 399.998C703.485 414.424 714.937 431.56 722.756 450.426C730.574 469.293 734.606 489.519 734.62 509.948C734.62 551.292 718.262 590.948 689.135 620.22C660.008 649.491 620.488 665.989 579.243 666.095C538.044 665.968 498.58 649.45 469.525 620.171C440.47 590.891 424.2 551.246 424.291 509.948ZM653.406 510.346C653.406 490.616 645.587 471.694 631.669 457.742C617.751 443.79 598.874 435.953 579.19 435.953C559.59 436.079 540.835 443.972 527.02 457.91C513.205 471.848 505.452 490.698 505.452 510.346C505.421 520.084 507.303 529.733 510.991 538.742C514.68 547.751 520.103 555.944 526.95 562.852C533.798 569.76 541.935 575.248 550.899 579.004C559.862 582.759 569.475 584.708 579.19 584.74C588.936 584.74 598.587 582.816 607.591 579.077C616.596 575.338 624.777 569.859 631.669 562.951C638.561 556.043 644.027 547.841 647.757 538.816C651.487 529.79 653.406 520.116 653.406 510.346Z" fill="#FFC8C8"/>
<path d="M258.218 856.628C258.186 836.222 262.173 816.01 269.948 797.151C277.724 778.292 289.137 761.157 303.532 746.728C317.927 732.298 335.021 720.858 353.835 713.064C372.649 705.269 392.812 701.273 413.17 701.305C433.55 701.263 453.739 705.249 472.581 713.034C491.423 720.82 508.55 732.252 522.98 746.678C537.411 761.104 548.863 778.24 556.682 797.107C564.5 815.973 568.532 836.199 568.546 856.628C568.546 897.972 552.189 937.628 523.061 966.9C493.934 996.172 454.414 1012.67 413.17 1012.77C371.97 1012.65 332.507 996.13 303.451 966.851C274.396 937.571 258.126 897.926 258.218 856.628ZM487.332 857.026C487.332 837.296 479.513 818.374 465.595 804.422C451.677 790.471 432.8 782.633 413.117 782.633C393.516 782.759 374.762 790.653 360.947 804.591C347.131 818.528 339.378 837.378 339.378 857.026C339.347 866.764 341.229 876.414 344.918 885.422C348.606 894.431 354.029 902.624 360.877 909.532C367.724 916.44 375.862 921.928 384.825 925.684C393.788 929.439 403.402 931.389 413.117 931.42C422.863 931.42 432.513 929.496 441.518 925.757C450.522 922.019 458.704 916.539 465.595 909.631C472.487 902.723 477.953 894.522 481.683 885.496C485.413 876.47 487.332 866.796 487.332 857.026Z" fill="#00FF84"/>
<path d="M360.218 1203.31C360.186 1182.9 364.173 1162.69 371.948 1143.83C379.724 1124.97 391.137 1107.84 405.532 1093.41C419.927 1078.98 437.021 1067.54 455.835 1059.74C474.649 1051.95 494.812 1047.95 515.17 1047.99C535.55 1047.94 555.739 1051.93 574.581 1059.71C593.423 1067.5 610.55 1078.93 624.98 1093.36C639.411 1107.78 650.863 1124.92 658.682 1143.79C666.5 1162.65 670.532 1182.88 670.546 1203.31C670.546 1244.65 654.189 1284.31 625.061 1313.58C595.934 1342.85 556.414 1359.35 515.17 1359.46C473.97 1359.33 434.507 1342.81 405.451 1313.53C376.396 1284.25 360.126 1244.61 360.218 1203.31ZM589.332 1203.71C589.332 1183.98 581.513 1165.05 567.595 1151.1C553.677 1137.15 534.8 1129.31 515.117 1129.31C495.516 1129.44 476.762 1137.33 462.947 1151.27C449.131 1165.21 441.378 1184.06 441.378 1203.71C441.347 1213.45 443.229 1223.09 446.918 1232.1C450.606 1241.11 456.029 1249.3 462.877 1256.21C469.724 1263.12 477.862 1268.61 486.825 1272.36C495.788 1276.12 505.402 1278.07 515.117 1278.1C524.863 1278.1 534.513 1276.18 543.518 1272.44C552.522 1268.7 560.704 1263.22 567.595 1256.31C574.487 1249.4 579.953 1241.2 583.683 1232.18C587.413 1223.15 589.332 1213.48 589.332 1203.71Z" fill="#FFC8C8"/>
<path d="M747.819 509.948C747.788 489.542 751.774 469.33 759.55 450.471C767.326 431.612 778.738 414.477 793.133 400.047C807.528 385.618 824.622 374.178 843.436 366.384C862.25 358.589 882.414 354.593 902.771 354.624C923.152 354.582 943.34 358.568 962.182 366.354C981.025 374.14 998.151 385.572 1012.58 399.998C1027.01 414.424 1038.47 431.56 1046.28 450.426C1054.1 469.293 1058.13 489.519 1058.15 509.948C1058.15 551.292 1041.79 590.948 1012.66 620.22C983.536 649.491 944.016 665.989 902.771 666.095C861.572 665.968 822.108 649.45 793.053 620.171C763.998 590.891 747.728 551.246 747.819 509.948ZM976.934 510.346C976.899 490.627 969.069 471.725 955.158 457.781C941.247 443.837 922.391 435.988 902.718 435.953C883.113 436.072 864.351 443.962 850.531 457.901C836.71 471.84 828.952 490.694 828.953 510.346C828.896 530.016 836.636 548.903 850.468 562.853C864.301 576.804 883.096 584.676 902.718 584.74C912.464 584.74 922.115 582.816 931.119 579.077C940.123 575.338 948.305 569.859 955.197 562.951C962.088 556.043 967.555 547.841 971.285 538.816C975.014 529.79 976.934 520.116 976.934 510.346Z" fill="#00FF84"/>
<path d="M581.746 856.628C581.715 836.222 585.701 816.01 593.477 797.151C601.253 778.292 612.665 761.157 627.06 746.728C641.455 732.298 658.549 720.858 677.363 713.064C696.177 705.269 716.341 701.273 736.698 701.305C757.078 701.263 777.267 705.249 796.109 713.034C814.952 720.82 832.078 732.252 846.509 746.678C860.94 761.104 872.392 778.24 880.21 797.107C888.029 815.973 892.06 836.199 892.074 856.628C892.074 897.972 875.717 937.628 846.59 966.9C817.462 996.172 777.943 1012.67 736.698 1012.77C695.499 1012.65 656.035 996.13 626.98 966.851C597.924 937.571 581.654 897.926 581.746 856.628ZM810.861 857.026C810.826 837.307 802.995 818.405 789.085 804.461C775.174 790.517 756.317 782.668 736.645 782.633C717.04 782.752 698.278 790.643 684.457 804.581C670.636 818.52 662.879 837.374 662.879 857.026C662.823 876.696 670.562 895.583 684.395 909.533C698.228 923.484 717.022 931.357 736.645 931.42C746.391 931.42 756.042 929.496 765.046 925.757C774.05 922.019 782.232 916.539 789.124 909.631C796.015 902.723 801.482 894.522 805.211 885.496C808.941 876.47 810.861 866.796 810.861 857.026Z" fill="#FFC8C8"/>
<path d="M683.746 1203.31C683.715 1182.9 687.701 1162.69 695.477 1143.83C703.253 1124.97 714.665 1107.84 729.06 1093.41C743.455 1078.98 760.549 1067.54 779.363 1059.74C798.177 1051.95 818.341 1047.95 838.698 1047.99C859.078 1047.94 879.267 1051.93 898.109 1059.71C916.952 1067.5 934.078 1078.93 948.509 1093.36C962.94 1107.78 974.392 1124.92 982.21 1143.79C990.029 1162.65 994.06 1182.88 994.074 1203.31C994.074 1244.65 977.717 1284.31 948.59 1313.58C919.462 1342.85 879.943 1359.35 838.698 1359.46C797.499 1359.33 758.035 1342.81 728.98 1313.53C699.924 1284.25 683.654 1244.61 683.746 1203.31ZM912.861 1203.71C912.826 1183.99 904.995 1165.09 891.085 1151.14C877.174 1137.2 858.317 1129.35 838.645 1129.31C819.04 1129.43 800.278 1137.32 786.457 1151.26C772.636 1165.2 764.879 1184.05 764.879 1203.71C764.823 1223.38 772.562 1242.26 786.395 1256.21C800.228 1270.16 819.022 1278.04 838.645 1278.1C848.391 1278.1 858.042 1276.18 867.046 1272.44C876.05 1268.7 884.232 1263.22 891.124 1256.31C898.015 1249.4 903.482 1241.2 907.211 1232.18C910.941 1223.15 912.861 1213.48 912.861 1203.71Z" fill="#00FF84"/>
<path d="M352.09 658.15L247.685 553.07V658.15H166.074V346.68H247.685V476.603L377.827 346.68H492.994L324.789 515.713L466.489 658.15H352.09Z" fill="#00FF84"/>
<path d="M186.017 1004.83L81.611 899.75V1004.83H0V693.36H81.611V823.284L211.753 693.36H326.92L158.716 862.393L300.415 1004.83H186.017Z" fill="#FFC8C8"/>
<path d="M288.017 1351.51L183.611 1246.43V1351.51H102V1040.04H183.611V1169.96L313.753 1040.04H428.92L260.716 1209.07L402.415 1351.51H288.017Z" fill="#00FF84"/>
<path d="M320.35 163.268C320.319 142.859 324.306 122.645 332.083 103.784C339.861 84.9238 351.276 67.7876 365.674 53.3579C380.071 38.9281 397.169 27.4886 415.986 19.6956C434.803 11.9026 454.969 7.90913 475.328 7.94412C495.707 7.90571 515.893 11.8941 534.732 19.6813C553.571 27.4685 570.695 38.9018 585.122 53.3274C599.55 67.7529 611 84.888 618.817 103.752C626.634 122.617 630.665 142.841 630.678 163.268C630.679 204.607 614.325 244.259 585.203 273.53C556.082 302.801 516.569 319.302 475.328 319.414C434.127 319.288 394.66 302.771 365.6 273.492C336.541 244.213 320.265 204.568 320.35 163.268ZM549.491 163.666C549.456 143.946 541.626 125.045 527.715 111.101C513.805 97.1568 494.948 89.3074 475.275 89.2723C455.67 89.3916 436.909 97.2821 423.088 111.221C409.267 125.159 401.51 144.014 401.511 163.666C401.454 183.335 409.193 202.222 423.026 216.173C436.859 230.124 455.653 237.996 475.275 238.06C494.936 238.024 513.779 230.171 527.669 216.223C541.558 202.276 549.359 183.373 549.359 163.666H549.491Z" fill="#00FF84"/>
<path d="M643.719 163.268C643.688 142.862 647.674 122.65 655.45 103.791C663.226 84.9318 674.639 67.7967 689.034 53.3673C703.429 38.9379 720.522 27.498 739.336 19.7034C758.15 11.9089 778.314 7.91269 798.671 7.94417C819.051 7.90226 839.24 11.8883 858.082 19.6739C876.925 27.4596 894.051 38.8921 908.482 53.318C922.913 67.7439 934.365 84.8801 942.183 103.746C950.002 122.612 954.034 142.839 954.048 163.268C954.048 204.611 937.69 244.268 908.563 273.539C879.435 302.811 839.916 319.309 798.671 319.414C757.472 319.288 718.008 302.77 688.953 273.49C659.897 244.211 643.628 204.566 643.719 163.268ZM872.834 163.666C872.834 143.936 865.015 125.013 851.097 111.062C837.179 97.1103 818.301 89.2723 798.618 89.2723C779.018 89.3987 760.263 97.2923 746.448 111.23C732.633 125.168 724.879 144.018 724.88 163.666C724.848 173.404 726.73 183.053 730.419 192.062C734.108 201.071 739.531 209.263 746.378 216.172C753.225 223.08 761.363 228.568 770.326 232.324C779.29 236.079 788.903 238.028 798.618 238.06C808.366 238.063 818.02 236.142 827.027 232.405C836.035 228.668 844.219 223.188 851.114 216.28C858.008 209.371 863.477 201.169 867.208 192.142C870.94 183.114 872.86 173.438 872.86 163.666H872.834Z" fill="#FFC8C8"/>
<path d="M248.017 311.47L143.612 206.389V311.47H62.0005V0H143.612V129.923L273.727 0H388.895L220.69 169.033L362.389 311.47H248.017Z" fill="#FFC8C8"/>
</svg>
