<svg width="142" height="25" viewBox="0 0 142 25" fill="none" xmlns="http://www.w3.org/2000/svg">
<path d="M20.5889 12.7784C20.5864 11.1811 20.8987 9.599 21.5079 8.12281C22.117 6.64662 23.011 5.30541 24.1387 4.17602C25.2663 3.04663 26.6054 2.15128 28.0792 1.54134C29.5529 0.931394 31.1323 0.618835 32.7269 0.621573C34.3229 0.618566 35.9039 0.93073 37.3794 1.54022C38.8549 2.14971 40.196 3.04457 41.326 4.17363C42.4561 5.30269 43.3528 6.64382 43.965 8.1203C44.5772 9.59678 44.8929 11.1797 44.894 12.7784C44.894 16.014 43.6132 19.1175 41.3324 21.4085C39.0516 23.6995 35.9569 24.9909 32.7269 24.9997C29.5 24.9898 26.4089 23.6971 24.1329 21.4055C21.857 19.1139 20.5823 16.011 20.5889 12.7784ZM38.5354 12.8096C38.5326 11.2662 37.9194 9.7868 36.8299 8.69544C35.7404 7.60408 34.2635 6.98972 32.7228 6.98697C31.1873 6.99631 29.7178 7.61388 28.6354 8.70483C27.5529 9.79578 26.9454 11.2715 26.9454 12.8096C26.941 14.3491 27.5472 15.8274 28.6306 16.9193C29.714 18.0112 31.1859 18.6273 32.7228 18.6323C34.2626 18.6295 35.7384 18.0148 36.8262 16.9232C37.9141 15.8315 38.525 14.3521 38.525 12.8096H38.5354Z" fill="white"/>
<path d="M45.9151 12.7785C45.9126 11.1813 46.2248 9.59935 46.8338 8.1233C47.4429 6.64725 48.3367 5.30612 49.4641 4.17676C50.5916 3.0474 51.9303 2.15202 53.4039 1.54195C54.8774 0.931885 56.4566 0.619113 58.051 0.621577C59.6472 0.618297 61.2284 0.930273 62.7041 1.53964C64.1799 2.14901 65.5212 3.04381 66.6515 4.1729C67.7817 5.30199 68.6786 6.6432 69.291 8.11982C69.9033 9.59643 70.2191 11.1795 70.2202 12.7785C70.2202 16.0143 68.9391 19.1182 66.6578 21.4092C64.3765 23.7003 61.2813 24.9915 58.051 24.9998C54.8242 24.9898 51.7334 23.697 49.4578 21.4054C47.1822 19.1137 45.9079 16.0108 45.9151 12.7785ZM63.8595 12.8096C63.8595 11.2654 63.2471 9.78436 62.157 8.6924C61.0669 7.60044 59.5885 6.98698 58.0469 6.98698C56.5117 6.99686 55.0429 7.61468 53.9609 8.70557C52.8788 9.79646 52.2716 11.2718 52.2716 12.8096C52.2692 13.5718 52.4166 14.327 52.7055 15.0321C52.9944 15.7372 53.4191 16.3784 53.9554 16.9191C54.4917 17.4598 55.129 17.8894 55.831 18.1833C56.533 18.4773 57.286 18.6298 58.0469 18.6323C58.8104 18.6325 59.5664 18.4822 60.2719 18.1897C60.9774 17.8972 61.6184 17.4683 62.1583 16.9276C62.6983 16.3869 63.1267 15.7449 63.4189 15.0384C63.7111 14.3318 63.8616 13.5744 63.8616 12.8096H63.8595Z" fill="white"/>
<path d="M14.9234 24.3782L6.74632 16.1537V24.3782H0.354492V0H6.74632V10.1688L16.9371 0H25.9571L12.7831 13.2299L23.8811 24.3782H14.9234Z" fill="white"/>
<path d="M92.001 12.7785C91.9985 11.1813 92.3108 9.59935 92.9198 8.1233C93.5288 6.64725 94.4227 5.30612 95.5501 4.17676C96.6775 3.0474 98.0163 2.15202 99.4898 1.54195C100.963 0.931885 102.543 0.619113 104.137 0.621577C105.733 0.618297 107.314 0.930273 108.79 1.53964C110.266 2.14901 111.607 3.04381 112.737 4.1729C113.868 5.30199 114.765 6.6432 115.377 8.11982C115.989 9.59643 116.305 11.1795 116.306 12.7785C116.306 16.0143 115.025 19.1182 112.744 21.4092C110.462 23.7003 107.367 24.9915 104.137 24.9998C100.91 24.9898 97.8194 23.697 95.5437 21.4054C93.2681 19.1137 91.9938 16.0108 92.001 12.7785ZM109.945 12.8096C109.945 11.2654 109.333 9.78436 108.243 8.6924C107.153 7.60044 105.674 6.98698 104.133 6.98698C102.598 6.99686 101.129 7.61468 100.047 8.70557C98.9648 9.79646 98.3575 11.2718 98.3576 12.8096C98.3551 13.5718 98.5025 14.327 98.7914 15.0321C99.0803 15.7372 99.505 16.3784 100.041 16.9191C100.578 17.4598 101.215 17.8894 101.917 18.1833C102.619 18.4773 103.372 18.6298 104.133 18.6323C104.896 18.6323 105.652 18.4817 106.357 18.1891C107.062 17.8964 107.703 17.4676 108.243 16.9269C108.783 16.3862 109.211 15.7443 109.503 15.0379C109.795 14.3314 109.945 13.5743 109.945 12.8096Z" fill="white"/>
<path d="M117.34 12.7785C117.337 11.1813 117.65 9.59938 118.259 8.12333C118.868 6.64728 119.761 5.30615 120.889 4.17679C122.016 3.04743 123.355 2.15205 124.829 1.54198C126.302 0.931915 127.881 0.619143 129.476 0.621608C131.072 0.618327 132.653 0.930303 134.129 1.53967C135.605 2.14904 136.946 3.04385 138.076 4.17293C139.206 5.30202 140.103 6.64324 140.716 8.11985C141.328 9.59647 141.644 11.1795 141.645 12.7785C141.645 16.0144 140.364 19.1182 138.083 21.4092C135.801 23.7003 132.706 24.9915 129.476 24.9998C126.249 24.9899 123.158 23.6971 120.883 21.4054C118.607 19.1138 117.333 16.0108 117.34 12.7785ZM135.284 12.8097C135.282 11.2662 134.668 9.78684 133.579 8.69547C132.489 7.60411 131.012 6.98975 129.472 6.98701C127.936 6.99635 126.467 7.61392 125.384 8.70487C124.302 9.79581 123.694 11.2715 123.694 12.8097C123.69 14.3491 124.296 15.8274 125.379 16.9193C126.463 18.0112 127.935 18.6273 129.472 18.6323C130.235 18.6323 130.991 18.4817 131.696 18.1891C132.401 17.8965 133.042 17.4676 133.582 16.9269C134.122 16.3862 134.55 15.7443 134.842 15.0379C135.134 14.3315 135.284 13.5743 135.284 12.8097Z" fill="white"/>
<path d="M86.3463 24.3782L78.1692 16.1537V24.3782H71.7773V0H78.1692V10.1688L88.362 0H97.382L84.208 13.2299L95.306 24.3782H86.3463Z" fill="white"/>
</svg>
