<svg width="289" height="34" viewBox="0 0 289 34" fill="none" xmlns="http://www.w3.org/2000/svg">
<path d="M20.4063 21.7785C20.4038 20.1811 20.7161 18.599 21.3252 17.1228C21.9344 15.6467 22.8284 14.3054 23.9561 13.176C25.0837 12.0467 26.4228 11.1513 27.8965 10.5414C29.3703 9.93142 30.9497 9.61887 32.5443 9.6216C34.1403 9.6186 35.7213 9.93076 37.1968 10.5403C38.6723 11.1497 40.0134 12.0446 41.1434 13.1737C42.2734 14.3027 43.1702 15.6438 43.7824 17.1203C44.3946 18.5968 44.7103 20.1797 44.7114 21.7785C44.7114 25.014 43.4306 28.1175 41.1498 30.4085C38.8689 32.6995 35.7743 33.991 32.5443 33.9998C29.3173 33.9899 26.2263 32.6971 23.9503 30.4055C21.6744 28.1139 20.3997 25.011 20.4063 21.7785V21.7785ZM38.3528 21.8096C38.35 20.2662 37.7367 18.7868 36.6473 17.6955C35.5578 16.6041 34.0809 15.9898 32.5401 15.987C31.0047 15.9963 29.5352 16.6139 28.4528 17.7049C27.3703 18.7958 26.7628 20.2715 26.7628 21.8096C26.7584 23.3491 27.3646 24.8274 28.448 25.9193C29.5314 27.0112 31.0033 27.6273 32.5401 27.6323C34.0799 27.6295 35.5558 27.0149 36.6436 25.9232C37.7315 24.8316 38.3424 23.3521 38.3424 21.8096H38.3528Z" fill="white"/>
<path d="M45.7325 21.7785C45.73 20.1813 46.0422 18.5994 46.6512 17.1233C47.2602 15.6473 48.1541 14.3061 49.2815 13.1768C50.4089 12.0474 51.7477 11.152 53.2212 10.542C54.6948 9.93192 56.274 9.61914 57.8684 9.62161C59.4646 9.61833 61.0458 9.9303 62.5215 10.5397C63.9973 11.149 65.3386 12.0438 66.4688 13.1729C67.5991 14.302 68.496 15.6432 69.1084 17.1199C69.7207 18.5965 70.0365 20.1795 70.0376 21.7785C70.0376 25.0144 68.7564 28.1182 66.4752 30.4092C64.1939 32.7003 61.0987 33.9915 57.8684 33.9998C54.6416 33.9899 51.5508 32.697 49.2752 30.4054C46.9995 28.1138 45.7253 25.0108 45.7325 21.7785V21.7785ZM63.6769 21.8097C63.6769 20.2654 63.0645 18.7844 61.9744 17.6924C60.8843 16.6005 59.4058 15.987 57.8642 15.987C56.3291 15.9969 54.8603 16.6147 53.7782 17.7056C52.6962 18.7965 52.089 20.2719 52.089 21.8097C52.0865 22.5718 52.2339 23.3271 52.5228 24.0322C52.8117 24.7373 53.2365 25.3785 53.7728 25.9192C54.309 26.4598 54.9464 26.8894 55.6484 27.1833C56.3504 27.4773 57.1034 27.6298 57.8642 27.6323C58.6277 27.6326 59.3838 27.4822 60.0893 27.1897C60.7947 26.8972 61.4357 26.4683 61.9757 25.9276C62.5157 25.3869 62.944 24.745 63.2363 24.0384C63.5285 23.3318 63.6789 22.5745 63.6789 21.8097H63.6769Z" fill="white"/>
<path d="M14.7408 33.3782L6.5637 25.1537V33.3782H0.171875V9H6.5637V19.1688L16.7545 9H25.7745L12.6005 22.2299L23.6985 33.3782H14.7408Z" fill="white"/>
<path d="M91.8184 21.7785C91.8159 20.1813 92.1281 18.5994 92.7372 17.1233C93.3462 15.6473 94.24 14.3061 95.3675 13.1768C96.4949 12.0474 97.8337 11.152 99.3072 10.542C100.781 9.93192 102.36 9.61914 103.954 9.62161C105.551 9.61833 107.132 9.9303 108.607 10.5397C110.083 11.149 111.425 12.0438 112.555 13.1729C113.685 14.302 114.582 15.6432 115.194 17.1199C115.807 18.5965 116.122 20.1795 116.124 21.7785C116.124 25.0144 114.842 28.1182 112.561 30.4092C110.28 32.7003 107.185 33.9915 103.954 33.9998C100.728 33.9899 97.6368 32.697 95.3611 30.4054C93.0855 28.1138 91.8112 25.0108 91.8184 21.7785V21.7785ZM109.763 21.8097C109.763 20.2654 109.15 18.7844 108.06 17.6924C106.97 16.6005 105.492 15.987 103.95 15.987C102.415 15.9969 100.946 16.6147 99.8642 17.7056C98.7822 18.7965 98.1749 20.2719 98.1749 21.8097C98.1725 22.5718 98.3199 23.3271 98.6088 24.0322C98.8977 24.7373 99.3224 25.3785 99.8587 25.9192C100.395 26.4598 101.032 26.8894 101.734 27.1833C102.436 27.4773 103.189 27.6298 103.95 27.6323C104.713 27.6323 105.469 27.4817 106.175 27.1891C106.88 26.8965 107.521 26.4676 108.06 25.9269C108.6 25.3862 109.028 24.7443 109.32 24.0379C109.612 23.3315 109.763 22.5743 109.763 21.8097V21.8097Z" fill="white"/>
<path d="M117.157 21.7785C117.155 20.1813 117.467 18.5994 118.076 17.1233C118.685 15.6473 119.579 14.3061 120.706 13.1768C121.834 12.0474 123.173 11.152 124.646 10.542C126.12 9.93192 127.699 9.61914 129.293 9.62161C130.889 9.61833 132.471 9.9303 133.946 10.5397C135.422 11.149 136.763 12.0438 137.894 13.1729C139.024 14.302 139.921 15.6432 140.533 17.1199C141.146 18.5965 141.461 20.1795 141.462 21.7785C141.462 25.0144 140.181 28.1182 137.9 30.4092C135.619 32.7003 132.524 33.9915 129.293 33.9998C126.066 33.9899 122.976 32.697 120.7 30.4054C118.424 28.1138 117.15 25.0108 117.157 21.7785V21.7785ZM135.102 21.8097C135.099 20.2662 134.486 18.7868 133.396 17.6955C132.307 16.6041 130.83 15.9898 129.289 15.987C127.754 15.9963 126.284 16.6139 125.202 17.7049C124.119 18.7958 123.512 20.2715 123.512 21.8097C123.507 23.3491 124.113 24.8274 125.197 25.9193C126.28 27.0112 127.752 27.6273 129.289 27.6323C130.052 27.6323 130.808 27.4817 131.513 27.1891C132.219 26.8965 132.859 26.4676 133.399 25.9269C133.939 25.3862 134.367 24.7443 134.659 24.0379C134.951 23.3315 135.102 22.5743 135.102 21.8097V21.8097Z" fill="white"/>
<path d="M86.1637 33.3782L77.9866 25.1537V33.3782H71.5947V9H77.9866V19.1688L88.1794 9H97.1993L84.0254 22.2299L95.1234 33.3782H86.1637Z" fill="white"/>
<g clip-path="url(#clip0_401_2488)">
<path d="M279.357 16.3346H275.455C272.943 16.3346 271.598 18.2184 271.598 21.3578V32.7058H264.197V16.3346H261.058C258.546 16.3346 257.201 18.2184 257.201 21.3578V32.7058H249.8V10.2793H257.201V13.6882C258.412 11.0418 260.072 10.2793 262.539 10.2793H271.599V13.6882C272.811 11.0418 274.47 10.2793 276.937 10.2793H279.359V16.3346H279.357ZM248.185 23.2416H232.755C233.159 25.7537 234.728 27.1886 237.375 27.1886C239.348 27.1886 240.738 26.3809 241.187 24.946L247.736 26.7848C246.121 30.6867 242.129 33.0645 237.375 33.0645C229.346 33.0645 225.668 26.8299 225.668 21.4931C225.668 16.2455 228.897 9.96567 236.926 9.96567C245.448 9.96567 248.274 16.3346 248.274 21.0442C248.275 22.0752 248.23 22.7486 248.185 23.2416ZM241.008 18.8907C240.829 16.9618 239.438 15.1682 236.927 15.1682C234.594 15.1682 233.204 16.1992 232.755 18.8907H241.008V18.8907ZM212.752 32.7058H219.255L227.373 10.2804H219.928L215.981 23.3318L211.944 10.2793H204.543L212.752 32.7058ZM182.432 32.7058H189.788V16.3346H196.785V32.7058H204.096V10.2793H189.788V8.88952C189.788 7.36441 190.864 6.4225 192.569 6.4225H196.785V0.367188H191.358C186.021 0.367188 182.432 3.64187 182.432 8.44057V10.2793H178.261V16.3346H182.432V32.7058Z" fill="white"/>
<path d="M283.932 33.3781C286.459 33.3781 288.507 31.3296 288.507 28.8028C288.507 26.276 286.459 24.2275 283.932 24.2275C281.405 24.2275 279.356 26.276 279.356 28.8028C279.356 31.3296 281.405 33.3781 283.932 33.3781Z" fill="white"/>
</g>
<path d="M154.123 24.9981L158.318 20.8027L154.123 16.6074C154.001 16.4817 153.934 16.3133 153.936 16.1385C153.937 15.9637 154.007 15.7965 154.131 15.6729C154.254 15.5493 154.422 15.4791 154.596 15.4776C154.771 15.4761 154.94 15.5433 155.065 15.6647L159.261 19.8601L163.456 15.6647C163.518 15.6011 163.591 15.5503 163.672 15.5153C163.754 15.4804 163.841 15.462 163.93 15.4612C164.018 15.4605 164.106 15.4773 164.188 15.5109C164.27 15.5444 164.344 15.5939 164.407 15.6565C164.47 15.7191 164.519 15.7935 164.553 15.8754C164.586 15.9574 164.603 16.0452 164.602 16.1337C164.601 16.2222 164.583 16.3097 164.548 16.391C164.513 16.4723 164.462 16.5459 164.399 16.6074L160.203 20.8027L164.399 24.9981C164.462 25.0596 164.513 25.1331 164.548 25.2145C164.583 25.2958 164.601 25.3833 164.602 25.4718C164.603 25.5603 164.586 25.6481 164.553 25.73C164.519 25.812 164.47 25.8864 164.407 25.949C164.344 26.0116 164.27 26.0611 164.188 26.0946C164.106 26.1281 164.018 26.145 163.93 26.1442C163.841 26.1435 163.754 26.1251 163.672 26.0901C163.591 26.0552 163.518 26.0044 163.456 25.9407L159.261 21.7454L155.065 25.9407C154.94 26.0622 154.771 26.1294 154.596 26.1279C154.422 26.1263 154.254 26.0562 154.131 25.9326C154.007 25.809 153.937 25.6418 153.936 25.467C153.934 25.2922 154.001 25.1238 154.123 24.9981Z" fill="white"/>
<defs>
<clipPath id="clip0_401_2488">
<rect width="110.246" height="33.011" fill="white" transform="translate(178.261 0.367676)"/>
</clipPath>
</defs>
</svg>
