<svg width="24" height="25" viewBox="0 0 24 25" xmlns="http://www.w3.org/2000/svg">
<path d="M12.7199 16.4177C12.5793 16.5584 12.3887 16.6375 12.1899 16.6377H11.8099C11.6114 16.6354 11.4216 16.5566 11.2799 16.4177L6.14985 11.2777C6.0552 11.1838 6.00195 11.056 6.00195 10.9227C6.00195 10.7894 6.0552 10.6616 6.14985 10.5677L6.85985 9.85768C6.95202 9.76361 7.07816 9.71061 7.20985 9.71061C7.34154 9.71061 7.46769 9.76361 7.55985 9.85768L11.9999 14.3077L16.4399 9.85768C16.5337 9.76302 16.6615 9.70978 16.7949 9.70978C16.9282 9.70978 17.056 9.76302 17.1499 9.85768L17.8499 10.5677C17.9445 10.6616 17.9978 10.7894 17.9978 10.9227C17.9978 11.056 17.9445 11.1838 17.8499 11.2777L12.7199 16.4177Z"/>
</svg>
