<svg width="57" height="58" viewBox="0 0 57 58" xmlns="http://www.w3.org/2000/svg">
<path d="M33.828 11.5235C38.1541 12.6202 41.862 15.2439 44.3436 18.9835C46.9907 22.9723 47.926 27.7529 46.9771 32.4446C45.0187 42.1263 35.5461 48.4133 25.8631 46.4587C22.2217 45.7237 19.554 44.0208 17.8912 42.6251L8.08439 43.187L12.4138 34.5902C11.4139 31.6167 11.2146 28.4326 11.8407 25.3377C13.7989 15.6562 23.2707 9.36985 32.9547 11.3246L33.828 11.5235ZM18.9644 39.5331L19.4338 39.957C21.4075 41.7394 23.8355 42.9618 26.4557 43.4918L26.4616 43.493C34.5105 45.1177 42.383 39.8922 44.0108 31.8448C44.7995 27.9451 44.0222 23.9716 41.8221 20.6563C39.6218 17.3408 36.2623 15.0804 32.362 14.2918C24.307 12.6659 16.4345 17.8906 14.8069 25.9375C14.2491 28.6952 14.4789 31.537 15.4717 34.1558L15.7074 34.7782L13.145 39.8665L18.9644 39.5331ZM37.4161 34.8607C37.3433 34.6554 37.0729 34.4866 36.6782 34.1783C36.2835 33.8701 34.3395 32.3729 33.9667 32.1451C33.5938 31.9177 33.3159 31.7854 32.9346 32.1655C32.5533 32.5456 31.5125 33.3642 31.1972 33.6054C30.8821 33.8465 30.6186 33.8315 30.224 33.5232C29.8293 33.2151 28.5083 32.4661 27.1333 30.6328C26.063 29.2058 25.472 27.5911 25.3046 27.1002C25.1372 26.6093 25.4139 26.4179 25.6778 26.2435C25.915 26.0867 26.2203 25.8196 26.4916 25.6077C26.7628 25.3959 26.8728 25.2275 27.0783 24.9643C27.2837 24.7009 27.2623 24.43 27.1969 24.1882C27.1314 23.9463 26.6895 21.6093 26.501 20.6569C26.3173 19.7295 25.932 19.7722 25.6653 19.7043C25.4121 19.64 25.1197 19.5781 24.8271 19.519C24.5344 19.46 24.0366 19.4737 23.5455 19.8318C23.0545 20.1898 21.7061 21.0225 21.2701 23.1822C20.8342 25.342 21.9861 27.7459 22.1465 28.0831C22.3069 28.4203 24.2884 33.4327 28.3085 36.2224C29.2646 36.8859 30.0279 37.3209 30.6246 37.6518C31.6089 38.198 32.5753 38.3442 33.3546 38.3838C34.2235 38.4281 36.1662 37.8466 36.7389 36.8956C37.3116 35.9443 37.4889 35.0658 37.4161 34.8607Z"/>
</svg>